# xmcd
#
# Track frame offsets: 
#        182
#        13485
#        28017
#        41207
#        54237
#        67275
#        80635
#        93780
#        107372
#        120102
#        133332
#        147112
#        157850
#        172070
#        184907
#        198197
#
# Disc length: 2815 seconds
#
# Revision: 4
# Processed by: cddbd v1.5.2PL0 Copyright (c) Steve Scherf et al.
# Submitted via: ExactAudioCopyFreeDBPlugin 1.0
#
DISCID=da0afd10
DTITLE=Big Maceo - Worried Life Blues
DYEAR=1996
DGENRE=Blues
TTITLE0=County Jail Blues
TTITLE1=Why Should I Hang Around?
TTITLE2=Anytime For You
TTITLE3=Since You Been Gone
TTITLE4=I Got The Blues
TTITLE5=Worried Life Blues No.1
TTITLE6=Winter Time Blues
TTITLE7=Big Road Blues
TTITLE8=Detroit Jump
TTITLE9=Texas Blues
TTITLE10=Tuff Luck Blues
TTITLE11=Have You Heard About It
TTITLE12=Strange To Me
TTITLE13=Worried Life Blues No.2
TTITLE14=Leaving Blues
TTITLE15=Without You My Life Don't Mean A Thing
EXTD=YEAR: 1996
EXTT0=Maceo Merriweather Aufgenommen 1941 - 1952
EXTT1=
EXTT2=
EXTT3=
EXTT4=
EXTT5=
EXTT6=
EXTT7=
EXTT8=
EXTT9=
EXTT10=
EXTT11=
EXTT12=
EXTT13=
EXTT14=
EXTT15=
PLAYORDER=
